# xmcd CD database file
#
# Track frame offsets:
#	183
#	12783
#	26808
#	43083
#	57258
#	68808
#	81108
#	96933
#	115533
#	131958
#	143733
#	163383
#	194958
#	207783
#	219783
#	231108
#
# Disc length: 3373 seconds
#
# Revision: 0
# Processed by: cddbd v1.5.2PL0 Copyright (c) Steve Scherf et al.
# Submitted via: CDex 1.50
#
DISCID=e80d2b10
DTITLE=Nina Simone - Don't Let Me Be Misunderstood
DYEAR=1988
DGENRE=Jazz
TTITLE0=Don't Let Me Be Misunderstood
TTITLE1=The Last Rose Of Summer
TTITLE2=Ne Me Quitte Pas
TTITLE3=Work Song
TTITLE4=Little Girl Blue
TTITLE5=Trouble In Mind
TTITLE6=Strange Fruit
TTITLE7=Love Me Or Leave Me
TTITLE8=Come Ye
TTITLE9=I Put A Spell On You
TTITLE10=Don't Explain
TTITLE11=Wild Is The Wind
TTITLE12=What More Can I Say
TTITLE13=Nobody Knows You When You're Down And Out
TTITLE14=I Loves You, Porgy
TTITLE15=Mississipi Goddam
EXTD=YEAR: 1988
EXTT0=
EXTT1=
EXTT2=
EXTT3=
EXTT4=
EXTT5=
EXTT6=
EXTT7=
EXTT8=
EXTT9=
EXTT10=
EXTT11=
EXTT12=
EXTT13=
EXTT14=
EXTT15=
PLAYORDER=
